<svg height="496pt" viewBox="-8 0 496 496.21466" width="496pt" xmlns="http://www.w3.org/2000/svg"><path d="m56.140625 8h368v48h-368zm0 0" fill="#d1d3d4"/><path d="m392.140625 56c0 83.949219-68.050781 152-152 152-83.945313 0-152-68.050781-152-152zm0 0" fill="#d80027"/><path d="m133.421875 164.078125-34.480469 115.921875-9.519531 32-33.28125 112h-32l86-289.199219zm0 0" fill="#414042"/><path d="m72.140625 456c0 17.671875-14.324219 32-32 32-17.671875 0-32-14.328125-32-32s14.328125-32 32-32c17.675781 0 32 14.328125 32 32zm0 0" fill="#ab2300"/><path d="m456.140625 424h-32l-33.277344-112-9.519531-32-34.480469-115.921875 23.277344-29.277344zm0 0" fill="#414042"/><path d="m472.140625 456c0 17.671875-14.324219 32-32 32-17.671875 0-32-14.328125-32-32s14.328125-32 32-32c17.675781 0 32 14.328125 32 32zm0 0" fill="#ab2300"/><path d="m390.863281 312h-301.441406l9.519531-32h282.402344zm0 0" fill="#808285"/><g fill="#231f20"><path d="m463.941406 424.039062c.070313-.773437.027344-1.558593-.136718-2.320312l-85.078126-286.109375c12.597657-21.859375 19.800782-46.410156 21.007813-71.609375h24.40625c4.417969 0 8-3.582031 8-8v-48c0-4.417969-3.582031-8-8-8h-368c-4.417969 0-8 3.582031-8 8v48c0 4.417969 3.582031 8 8 8h24.410156c1.207031 25.199219 8.410157 49.75 21.007813 71.609375l-85.082032 286.109375c-.160156.761719-.207031 1.546875-.132812 2.320312-13.851562 10.230469-19.601562 28.171876-14.273438 44.546876 5.324219 16.371093 20.527344 27.5 37.742188 27.628906 17.21875.125 32.582031-10.78125 38.148438-27.074219 5.5625-16.292969.078124-34.316406-13.617188-44.75l31.070312-104.390625h289.457032l31.039062 104.390625c-13.699218 10.433594-19.183594 28.457031-13.617187 44.75 5.5625 16.292969 20.929687 27.199219 38.144531 27.074219 17.21875-.128906 32.421875-11.257813 37.746094-27.628906 5.324218-16.375-.425782-34.316407-14.273438-44.546876zm-399.800781-408.039062h352v32h-352zm319.785156 48c-4.1875 76.351562-67.316406 136.117188-143.785156 136.117188-76.464844 0-139.597656-59.765626-143.78125-136.117188zm-246.457031 114.542969c59.339844 49.941406 146.007812 49.941406 205.34375 0l27.792969 93.457031h-260.925781zm-97.328125 301.457031c-13.253906 0-24-10.746094-24-24s10.746094-24 24-24c13.257813 0 24 10.746094 24 24s-10.742187 24-24 24zm-5.269531-64 78.238281-263.113281c3.535156 4.640625 7.320313 9.089843 11.335937 13.320312l-74.269531 249.792969zm65.269531-112 4.800781-16h270.402344l4.757812 16zm329.96875 112-74.269531-249.792969c4.011718-4.230469 7.796875-8.679687 11.335937-13.320312l78.238281 263.113281zm10.03125 64c-13.253906 0-24-10.746094-24-24s10.746094-24 24-24c13.257813 0 24 10.746094 24 24s-10.742187 24-24 24zm0 0"/><path d="m264.140625 96h48c4.417969 0 8-3.582031 8-8s-3.582031-8-8-8h-48c-4.417969 0-8 3.582031-8 8s3.582031 8 8 8zm0 0"/><path d="m344.140625 96h8c4.417969 0 8-3.582031 8-8s-3.582031-8-8-8h-8c-4.417969 0-8 3.582031-8 8s3.582031 8 8 8zm0 0"/></g></svg>