<svg height="496pt" viewBox="-15 0 495 496" width="496pt" xmlns="http://www.w3.org/2000/svg"><path d="m168.5 152v256h128v-256zm96 224h-64v-192h64zm0 0" fill="#a7a9ac"/><path d="m168.5 152v256h-23.039062l-.320313 16h-113.28125l-6.160156-296h125.679687l-.480468 24zm0 0" fill="#414042"/><path d="m145.140625 424-.640625 32h-112l-.640625-32zm0 0" fill="#cca400"/><path d="m152.5 72-1.121094 56h-125.679687l-1.199219-56zm0 0" fill="#a7a9ac"/><path d="m200.5 184h64v192h-64zm0 0" fill="#414042"/><path d="m433.140625 424-.640625 32h-112l-.640625-32zm0 0" fill="#cca400"/><path d="m439.300781 128-6.160156 296h-113.28125l-.320313-16h-23.039062v-256h17.601562l-.480468-24zm0 0" fill="#414042"/><path d="m440.5 72-1.199219 56h-125.679687l-1.121094-56zm0 0" fill="#a7a9ac"/><path d="m8.5 40h160v32h-160zm0 0" fill="#cca400"/><path d="m128.5 456v16c-.027344 8.824219-7.175781 15.972656-16 16h-48c-8.824219-.027344-15.972656-7.175781-16-16v-16zm0 0" fill="#1a6fb0"/><path d="m296.5 40h160v32h-160zm0 0" fill="#cca400"/><path d="m416.5 456v16c-.027344 8.824219-7.175781 15.972656-16 16h-48c-8.824219-.027344-15.972656-7.175781-16-16v-16zm0 0" fill="#1a6fb0"/><path d="m440.5 28.238281v11.761719h-128v-11.761719c-.007812-5.367187 2.125-10.519531 5.921875-14.316406s8.949219-5.929687 14.316406-5.921875h87.523438c5.367187-.007812 10.519531 2.125 14.316406 5.921875s5.929687 8.949219 5.921875 14.316406zm0 0" fill="#1a6fb0"/><path d="m144.5 26.960938v13.039062h-112v-13.039062c-.003906-10.472657 8.488281-18.964844 18.960938-18.960938h74.078124c10.472657-.003906 18.964844 8.488281 18.960938 18.960938zm0 0" fill="#1a6fb0"/><path d="m200.5 184h64v192h-64zm0 0" fill="#414042"/><g fill="#231f20"><path d="m456.5 32h-8v-3.761719c-.019531-15.585937-12.652344-28.2187498-28.238281-28.238281h-87.523438c-15.585937.0195312-28.21875 12.652344-28.238281 28.238281v3.761719h-8c-4.417969 0-8 3.582031-8 8v32c0 4.417969 3.582031 8 8 8h8.160156l1.28125 64h-146.882812l1.28125-64h8.160156c4.417969 0 8-3.582031 8-8v-32c0-4.417969-3.582031-8-8-8h-16v-5.070312c-.019531-14.867188-12.0625-26.9101568-26.929688-26.929688h-74.140624c-14.867188.0195312-26.910157 12.0625-26.929688 26.929688v5.070312h-16c-4.417969 0-8 3.582031-8 8v32c0 4.417969 3.582031 8 8 8h8.160156l7.839844 376.167969c.089844 4.351562 3.648438 7.832031 8 7.832031h8v8c0 13.253906 10.746094 24 24 24h48c13.253906 0 24-10.746094 24-24v-8h8c4.355469 0 7.914062-3.484375 8-7.839844l.800781-40.160156h158.398438l.800781 40.160156c.085938 4.355469 3.644531 7.839844 8 7.839844h8v8c0 13.253906 10.746094 24 24 24h48c13.253906 0 24-10.746094 24-24v-8h8c4.351562 0 7.910156-3.480469 8-7.832031l7.839844-376.167969h8.160156c4.417969 0 8-3.582031 8-8v-32c0-4.417969-3.582031-8-8-8zm-136-3.761719c.007812-6.753906 5.484375-12.230469 12.238281-12.238281h87.523438c6.753906.007812 12.230469 5.484375 12.238281 12.238281v3.761719h-112zm-280-1.308593c.007812-6.035157 4.894531-10.921876 10.929688-10.929688h74.140624c6.035157.007812 10.921876 4.894531 10.929688 10.929688v5.070312h-96zm-24 21.070312h144v16h-144zm127.832031 32-.800781 40h-110.023438l-.839843-40zm-23.832031 392c0 4.417969-3.582031 8-8 8h-48c-4.417969 0-8-3.582031-8-8v-8h64zm-80.167969-24-.328125-16.105469c.164063.042969.328125.078125.496094.105469h96c.167969 0 .3125-.089844.480469-.097656l-.320313 16.097656zm105.128907-48c-4.359376 0-7.914063 3.484375-8 7.839844l-.160157 8.320312c-.265625-.070312-.53125-.125-.800781-.160156h-96c-.269531.039062-.535156.097656-.800781.167969l-5.863281-280.167969h109.375l-.3125 15.839844c-.042969 2.148437.78125 4.226562 2.289062 5.761718 1.503906 1.535157 3.5625 2.398438 5.710938 2.398438h9.601562v240zm31.039062 0v-240h112v240zm143.039062 0h-15.039062v-240h9.601562c2.148438 0 4.207032-.863281 5.710938-2.398438 1.507812-1.535156 2.332031-3.613281 2.289062-5.761718l-.3125-15.839844h109.375l-5.863281 280.167969c-.265625-.070313-.53125-.128907-.800781-.167969h-96c-.269531.035156-.535156.089844-.800781.160156l-.167969-8.320312c-.085938-4.351563-3.636719-7.835938-7.992188-7.839844zm88.960938 72c0 4.417969-3.582031 8-8 8h-48c-4.417969 0-8-3.582031-8-8v-8h64zm-80.160156-24-.320313-16.097656c.167969 0 .3125.097656.480469.097656h96c.167969-.027344.332031-.0625.496094-.105469l-.328125 16.105469zm103.152344-328h-110.023438l-.800781-40h111.664062zm17.007812-56h-144v-16h144zm0 0"/><path d="m264.5 176h-64c-4.417969 0-8 3.582031-8 8v192c0 4.417969 3.582031 8 8 8h64c4.417969 0 8-3.582031 8-8v-192c0-4.417969-3.582031-8-8-8zm-8 192h-48v-176h48zm0 0"/><path d="m344.5 112h40c4.417969 0 8-3.582031 8-8s-3.582031-8-8-8h-40c-4.417969 0-8 3.582031-8 8s3.582031 8 8 8zm0 0"/><path d="m408.5 112h8c4.417969 0 8-3.582031 8-8s-3.582031-8-8-8h-8c-4.417969 0-8 3.582031-8 8s3.582031 8 8 8zm0 0"/></g></svg>