<svg height="496pt" viewBox="-64 0 496 496.218" width="496pt" xmlns="http://www.w3.org/2000/svg"><path d="m296.109375 264.21875c0 66.269531-50.144531 120-112 120s-112-53.730469-112-120c0-66.273438 112-176 112-176s112 109.726562 112 176zm0 0" fill="#d80027"/><path d="m184.109375 352.21875c-29.867187-1.097656-53.226563-26.128906-52.265625-56 .960938-16 22.800781-40.136719 52.234375-82.695312 29.472656 42.636718 51.335937 66.863281 52.304687 83 .828126 29.769531-22.507812 54.636718-52.273437 55.695312zm0 0" fill="#ff9811"/><path d="m360.109375 408.21875-352 80v-32l352-80zm0 0" fill="#5f4d37"/><path d="m8.109375 408.21875 352 80v-32l-352-80zm0 0" fill="#a78966"/><path d="m192.109375 8.21875c0 9.320312-16 9.320312-16 18.648438 0 9.328124 16 9.351562 16 18.671874 0 9.320313-16 9.34375-16 18.679688" fill="#d1d3d4"/><path d="m112.109375 40.21875c0 9.320312-16 9.320312-16 18.648438 0 9.328124 16 9.335937 16 18.671874 0 9.335938-16 9.34375-16 18.679688" fill="#d1d3d4"/><path d="m272.109375 40.21875c0 9.320312-16 9.320312-16 18.648438 0 9.328124 16 9.335937 16 18.671874 0 9.335938-16 9.34375-16 18.679688" fill="#d1d3d4"/><g fill="#231f20"><path d="m184.109375 392.21875c66.167969 0 120-57.425781 120-128 0-68.800781-109.726563-177.136719-114.398437-181.710938-3.113282-3.050781-8.089844-3.050781-11.203126 0-4.671874 4.574219-114.398437 112.910157-114.398437 181.710938 0 70.574219 53.832031 128 120 128zm0-292.625c22.398437 23.023438 104 110.679688 104 164.625 0 61.757812-46.65625 112-104 112s-104-50.242188-104-112c0-53.90625 81.601563-141.601562 104-164.625zm0 0"/><path d="m184.109375 360.21875c34.363281-1.078125 61.34375-29.8125 60.253906-64.175781-.796875-13.953125-12.246093-29.601563-31.140625-55.519531-6.738281-9.234376-14.355468-19.671876-22.5625-31.546876-1.492187-2.160156-3.953125-3.449218-6.578125-3.449218-2.628906 0-5.085937 1.289062-6.582031 3.449218-8.253906 11.945313-15.910156 22.402344-22.671875 31.679688-18.792969 25.722656-30.136719 41.25-30.984375 55.5625-.960938 34.285156 25.980469 62.898438 60.265625 64zm-16.359375-110.136719c5-6.839843 10.480469-14.34375 16.328125-22.609375 5.808594 8.210938 11.246094 15.664063 16.207031 22.480469 16 21.929687 27.550782 37.769531 28.097656 46.570313.871094 25.367187-18.910156 46.679687-44.273437 47.695312-25.285156-1.039062-45.027344-22.226562-44.28125-47.519531.554687-9.144531 12.03125-24.855469 27.921875-46.617188zm0 0"/><path d="m368.109375 408.21875v-32c0-2.433594-1.109375-4.734375-3.011719-6.253906-1.902344-1.519532-4.390625-2.085938-6.765625-1.546875l-174.222656 39.601562-174.222656-39.601562c-2.375-.539063-4.863281.027343-6.765625 1.546875-1.902344 1.519531-3.011719 3.820312-3.011719 6.253906v32c0 3.734375 2.582031 6.96875 6.222656 7.800781l71.28125 16.199219-71.28125 16.199219c-3.640625.828125-6.222656 4.066406-6.222656 7.800781v32c0 4.417969 3.582031 8 8 8 .597656 0 1.191406-.066406 1.777344-.199219l174.222656-39.601562 174.222656 39.601562c.582031.132813 1.179688.199219 1.777344.199219 4.417969 0 8-3.582031 8-8v-32c0-3.734375-2.582031-6.972656-6.222656-7.800781l-71.28125-16.199219 71.28125-16.199219c3.640625-.832031 6.222656-4.066406 6.222656-7.800781zm-352-6.402344v-15.574218l131.902344 29.976562-34.300781 7.792969zm168 22.59375 34.296875 7.808594-34.296875 7.792969-34.296875-7.792969zm-168 53.785156v-15.578124l97.601563-22.175782 34.300781 7.777344zm336-15.578124v15.59375l-131.90625-29.992188 34.304687-7.792969zm0-60.800782-97.601563 22.195313-34.304687-7.792969 131.90625-29.976562zm0 0"/><path d="m168.109375 64.21875c-.050781 4.445312 3.488281 8.105469 7.9375 8.207031 2.089844.046875 4.109375-.753906 5.601563-2.222656 1.492187-1.464844 2.332031-3.46875 2.324218-5.5625 1.253906-1.113281 2.644532-2.0625 4.136719-2.824219 6.761719-2.707031 11.410156-9.007812 12-16.269531-.609375-7.25-5.25-13.539063-12-16.257813-1.304687-.710937-2.558594-1.515624-3.753906-2.398437 1.191406-.886719 2.441406-1.6875 3.746093-2.402344 6.765626-2.703125 11.417969-9.007812 12.007813-16.269531.050781-4.445312-3.484375-8.109375-7.929687-8.21484375-2.089844-.05078125-4.113282.74999975-5.609376 2.21484375-1.492187 1.46875-2.332031 3.472656-2.324218 5.566406-1.261719 1.121094-2.660156 2.078125-4.160156 2.847656-6.742188 2.710938-11.378907 8.992188-11.976563 16.234376.609375 7.246093 5.253906 13.53125 12 16.246093 1.308594.710938 2.566406 1.511719 3.757813 2.402344-1.195313.886719-2.449219 1.6875-3.757813 2.398437-6.773437 2.714844-11.421875 9.03125-12 16.304688zm0 0"/><path d="m88.109375 96.21875c-.050781 4.445312 3.488281 8.105469 7.9375 8.207031 2.089844.046875 4.109375-.753906 5.601563-2.222656 1.492187-1.464844 2.332031-3.46875 2.324218-5.5625 1.253906-1.113281 2.644532-2.0625 4.136719-2.824219 6.753906-2.703125 11.398437-8.988281 12-16.238281-.609375-7.25-5.25-13.539063-12-16.257813-1.304687-.710937-2.558594-1.511718-3.753906-2.398437 1.191406-.886719 2.441406-1.6875 3.746093-2.398437 6.777344-2.710938 11.429688-9.03125 12.007813-16.304688.050781-4.445312-3.484375-8.109375-7.929687-8.214844-2.089844-.050781-4.113282.75-5.609376 2.214844-1.492187 1.46875-2.332031 3.472656-2.324218 5.566406-1.261719 1.121094-2.660156 2.078125-4.160156 2.847656-6.742188 2.710938-11.378907 8.992188-11.976563 16.234376.609375 7.246093 5.253906 13.53125 12 16.246093 1.308594.710938 2.566406 1.511719 3.757813 2.402344-1.195313.886719-2.449219 1.6875-3.757813 2.398437-6.773437 2.714844-11.421875 9.03125-12 16.304688zm0 0"/><path d="m248.109375 96.21875c-.050781 4.445312 3.488281 8.105469 7.9375 8.207031 2.089844.046875 4.109375-.753906 5.601563-2.222656 1.492187-1.464844 2.332031-3.46875 2.324218-5.5625 1.253906-1.113281 2.644532-2.0625 4.136719-2.824219 6.753906-2.703125 11.398437-8.988281 12-16.238281-.609375-7.25-5.25-13.539063-12-16.257813-1.304687-.710937-2.558594-1.511718-3.753906-2.398437 1.191406-.886719 2.441406-1.6875 3.746093-2.398437 6.777344-2.710938 11.429688-9.03125 12.007813-16.304688.050781-4.445312-3.484375-8.109375-7.929687-8.214844-2.089844-.050781-4.113282.75-5.609376 2.214844-1.492187 1.46875-2.332031 3.472656-2.324218 5.566406-1.261719 1.121094-2.660156 2.078125-4.160156 2.847656-6.742188 2.710938-11.378907 8.992188-11.976563 16.234376.609375 7.246093 5.253906 13.53125 12 16.246093 1.308594.710938 2.566406 1.511719 3.757813 2.402344-1.195313.886719-2.449219 1.6875-3.757813 2.398437-6.773437 2.714844-11.421875 9.03125-12 16.304688zm0 0"/><path d="m272.109375 24.21875c4.417969 0 8-3.582031 8-8v-8c0-4.417969-3.582031-8-8-8s-8 3.582031-8 8v8c0 4.417969 3.582031 8 8 8zm0 0"/></g></svg>