<svg height="496pt" viewBox="0 -84 496 496" width="496pt" xmlns="http://www.w3.org/2000/svg"><path d="m200 56.027344c-2.859375.039062-5.695312.46875-8.441406 1.273437-3.09375-25.785156-23.523438-46.046875-49.332032-48.929687-25.804687-2.882813-50.203124 12.367187-58.914062 36.832031-5.886719-3.351563-12.539062-5.132813-19.3125-5.175781-22.089844 0-40 17.910156-40 40s17.910156 40 40 40h136c17.671875 0 32-14.328125 32-32s-14.328125-32-32-32zm0 0" fill="#e6e7e8"/><path d="m320 267.226562v52.800782h-144v-52.800782l72-91.199218zm0 0" fill="#00665a"/><path d="m296 296.027344h-96l48-72zm0 0" fill="#91cc04"/><path d="m88 248.027344c0 13.253906-10.746094 24-24 24s-24-10.746094-24-24c0-13.257813 24-40 24-40s24 26.742187 24 40zm0 0" fill="#ff9811"/><path d="m464 120.027344h-96l48-72zm0 0" fill="#ccfc5c"/><path d="m472 176.027344h-112l37.359375-56h37.28125zm0 0" fill="#91cc04"/><path d="m480 232.027344h-128l37.359375-56h53.28125zm0 0" fill="#4e901e"/><g fill="#231f20"><path d="m64 128.027344h136c14.585938.078125 28.054688-7.789063 35.152344-20.53125 7.101562-12.738282 6.703125-28.332032-1.039063-40.695313-7.738281-12.359375-21.59375-19.53125-36.152343-18.710937-6.578126-25.714844-28.363282-44.691406-54.734376-47.683594-26.375-2.992188-51.855468 10.625-64.027343 34.214844-4.882813-1.714844-10.023438-2.59375-15.199219-2.59375-26.507812 0-48 21.488281-48 48 0 26.507812 21.492188 48 48 48zm0-80c5.414062.039062 10.726562 1.472656 15.425781 4.167968 2.054688 1.144532 4.507813 1.324219 6.707031.496094 2.199219-.832031 3.925782-2.585937 4.714844-4.800781 7.441406-21 28.367188-34.105469 50.511719-31.632813 22.140625 2.472657 39.660156 19.871094 42.289063 41.992188.277343 2.316406 1.550781 4.394531 3.484374 5.691406 1.933594 1.300782 4.339844 1.691406 6.585938 1.070313 2.039062-.613281 4.152344-.945313 6.28125-.984375 13.253906 0 24 10.746094 24 24s-10.746094 24-24 24h-136c-17.671875 0-32-14.328125-32-32s14.328125-32 32-32zm0 0"/><path d="m56 96.027344h32c4.417969 0 8-3.582032 8-8 0-4.417969-3.582031-8-8-8h-32c-4.417969 0-8 3.582031-8 8 0 4.417968 3.582031 8 8 8zm0 0"/><path d="m112 96.027344h8c4.417969 0 8-3.582032 8-8 0-4.417969-3.582031-8-8-8h-8c-4.417969 0-8 3.582031-8 8 0 4.417968 3.582031 8 8 8zm0 0"/><path d="m254.65625 219.585938c-1.570312-2.097657-4.035156-3.332032-6.65625-3.332032s-5.085938 1.234375-6.65625 3.332032l-48 72c-1.636719 2.457031-1.789062 5.613281-.398438 8.214843 1.390626 2.601563 4.105469 4.226563 7.054688 4.226563h96c2.949219 0 5.664062-1.625 7.054688-4.226563 1.390624-2.601562 1.238281-5.757812-.398438-8.214843zm-39.703125 68.441406 33.046875-49.601563 33.046875 49.601563zm0 0"/><path d="m456 312.027344h-32v-72h56c2.949219 0 5.664062-1.625 7.054688-4.226563 1.390624-2.601562 1.238281-5.757812-.398438-8.214843l-29.054688-43.558594h14.398438c2.949219 0 5.664062-1.625 7.054688-4.226563 1.390624-2.601562 1.238281-5.757812-.398438-8.214843l-29.054688-43.558594h14.398438c2.949219 0 5.664062-1.625 7.054688-4.226563 1.390624-2.601562 1.238281-5.757812-.398438-8.214843l-48-72c-1.570312-2.097657-4.035156-3.332032-6.65625-3.332032s-5.085938 1.234375-6.65625 3.332032l-48 72c-1.636719 2.457031-1.789062 5.613281-.398438 8.214843 1.390626 2.601563 4.105469 4.226563 7.054688 4.226563h14.398438l-29.054688 43.558594c-1.636719 2.457031-1.789062 5.613281-.398438 8.214843 1.390626 2.601563 4.105469 4.226563 7.054688 4.226563h14.398438l-29.054688 43.558594c-1.636719 2.457031-1.789062 5.613281-.398438 8.214843 1.390626 2.601563 4.105469 4.226563 7.054688 4.226563h56v72h-42.398438l-111.320312-140.960938c-1.574219-1.828125-3.867188-2.878906-6.28125-2.878906s-4.707031 1.050781-6.28125 2.878906l-111.277344 140.960938h-18.441406c.007812-3.265625-1.972656-6.207032-5-7.433594l-21.457031-8.566406 21.433593-8.566406c4.105469-1.644532 6.097657-6.304688 4.457032-10.410157-1.644532-4.105469-6.304688-6.097656-10.410156-4.457031l-37.023438 14.816406-37.023438-14.816406c-4.105468-1.640625-8.765624.351562-10.410156 4.457031-1.640625 4.105469.351563 8.765625 4.457032 10.410157l21.433593 8.566406-21.433593 8.566406c-3.035157 1.21875-5.027344 4.160156-5.023438 7.433594h-8c-4.417969 0-8 3.582031-8 8 0 4.417968 3.582031 8 8 8h448c4.417969 0 8-3.582032 8-8 0-4.417969-3.582031-8-8-8zm-40-249.601563 33.046875 49.601563h-66.09375zm-14.398438 65.601563h28.796876l26.691406 40h-82.136719zm-34.648437 96 26.6875-40h44.757813l26.691406 40zm-21.777344 88h-17.175781v-21.761719zm-177.175781-21.761719v21.761719h-17.175781zm-104 14.402344 18.457031 7.359375h-36.914062zm120 7.359375v-42.023438l64-81.066406 64 81.066406v42.023438zm0 0"/><path d="m488 312.027344h-8c-4.417969 0-8 3.582031-8 8 0 4.417968 3.582031 8 8 8h8c4.417969 0 8-3.582032 8-8 0-4.417969-3.582031-8-8-8zm0 0"/><path d="m58.046875 202.683594c-4.351563 4.847656-26.046875 29.816406-26.046875 45.34375 0 17.671875 14.328125 32 32 32s32-14.328125 32-32c0-15.527344-21.695312-40.496094-26.046875-45.34375-1.554687-1.621094-3.707031-2.539063-5.953125-2.539063s-4.398438.917969-5.953125 2.539063zm21.953125 45.34375c0 8.835937-7.164062 16-16 16s-16-7.164063-16-16c0-5.097656 7.511719-17 16-27.609375 8.496094 10.65625 16 22.648437 16 27.609375zm0 0"/></g></svg>