<svg height="496pt" viewBox="0 -4 496 496" width="496pt" xmlns="http://www.w3.org/2000/svg"><path d="m8 80h480v320h-480zm0 0" fill="#e6e7e8"/><path d="m40 400h32v80h-32zm0 0" fill="#754c29"/><path d="m424 400h32v80h-32zm0 0" fill="#754c29"/><path d="m200 8h96v32h-96zm0 0" fill="#cca400"/><path d="m40 8h96v32h-96zm0 0" fill="#cca400"/><path d="m360 8h96v32h-96zm0 0" fill="#cca400"/><path d="m320 283.199219v52.800781h-144v-52.800781l72-91.199219zm0 0" fill="#4e901e"/><path d="m296 312h-96l48-72zm0 0" fill="#006468"/><g fill="#231f20"><path d="m488 72h-72v-24h40c4.417969 0 8-3.582031 8-8v-32c0-4.417969-3.582031-8-8-8h-96c-4.417969 0-8 3.582031-8 8v32c0 4.417969 3.582031 8 8 8h40v24h-144v-24h40c4.417969 0 8-3.582031 8-8v-32c0-4.417969-3.582031-8-8-8h-96c-4.417969 0-8 3.582031-8 8v32c0 4.417969 3.582031 8 8 8h40v24h-144v-24h40c4.417969 0 8-3.582031 8-8v-32c0-4.417969-3.582031-8-8-8h-96c-4.417969 0-8 3.582031-8 8v32c0 4.417969 3.582031 8 8 8h40v24h-72c-4.417969 0-8 3.582031-8 8v320c0 4.417969 3.582031 8 8 8h24v72c0 4.417969 3.582031 8 8 8h32c4.417969 0 8-3.582031 8-8v-72h336v72c0 4.417969 3.582031 8 8 8h32c4.417969 0 8-3.582031 8-8v-72h24c4.417969 0 8-3.582031 8-8v-320c0-4.417969-3.582031-8-8-8zm-120-40v-16h80v16zm-160 0v-16h80v16zm-160 0v-16h80v16zm16 440h-16v-64h16zm384 0h-16v-64h16zm32-80h-464v-304h464zm0 0"/><path d="m352 120h72c4.417969 0 8-3.582031 8-8s-3.582031-8-8-8h-72c-4.417969 0-8 3.582031-8 8s3.582031 8 8 8zm0 0"/><path d="m448 120h8c4.417969 0 8-3.582031 8-8s-3.582031-8-8-8h-8c-4.417969 0-8 3.582031-8 8s3.582031 8 8 8zm0 0"/><path d="m192.945312 315.777344c1.390626 2.601562 4.105469 4.222656 7.054688 4.222656h96c2.949219 0 5.664062-1.625 7.054688-4.226562 1.390624-2.601563 1.238281-5.757813-.398438-8.214844l-48-72c-1.570312-2.097656-4.035156-3.332032-6.65625-3.332032s-5.085938 1.234376-6.65625 3.332032l-48 72c-1.640625 2.457031-1.792969 5.613281-.398438 8.21875zm55.054688-61.378906 33.054688 49.601562h-66.109376zm0 0"/><path d="m40 344h424c4.417969 0 8-3.582031 8-8s-3.582031-8-8-8h-98.398438l-111.320312-140.960938c-1.578125-1.824218-3.871094-2.875-6.28125-2.875s-4.703125 1.050782-6.28125 2.875l-111.320312 140.960938h-90.398438c-4.417969 0-8 3.582031-8 8s3.582031 8 8 8zm288-16v-21.753906l17.175781 21.753906zm-80-123.089844 64 81.066406v42.023438h-128v-42.023438zm-80 101.335938v21.753906h-17.175781zm0 0"/></g></svg>