<svg height="496pt" viewBox="-84 0 496 496.00035" width="496pt" xmlns="http://www.w3.org/2000/svg"><path d="m224 8h-96c-53.019531 0-96 42.980469-96 96v288c0 53.019531 42.980469 96 96 96h28.238281c44.417969-.003906 83.035157-30.480469 93.363281-73.679688l70.398438-294.320312v-16c0-53.019531-42.980469-96-96-96zm64 108.238281-69.519531 290.640625c-6.785157 28.863282-32.589844 49.230469-62.242188 49.121094h-28.238281c-35.324219-.046875-63.953125-28.675781-64-64v-120h24v-144h-24v-24c.046875-35.324219 28.675781-63.953125 64-64h96c35.328125.046875 63.953125 28.675781 64 64zm0 0" fill="#4e901e"/><path d="m64 128h24v144h-24zm0 0" fill="#d1d3d4"/><path d="m8 128h80v144h-80zm0 0" fill="#d1d3d4"/><g fill="#231f20"><path d="m224 0h-96c-57.410156.0664062-103.933594 46.589844-104 104v16h-16c-4.417969 0-8 3.582031-8 8v144c0 4.417969 3.582031 8 8 8h16v112c.066406 57.410156 46.589844 103.933594 104 104h28.238281c48.167969.125 90.074219-32.945312 101.144531-79.824219l70.402344-294.320312c.144532-.609375.214844-1.230469.214844-1.855469v-16c-.066406-57.410156-46.589844-103.9335938-104-104zm-208 136h64v128h-64zm56 144h16c4.417969 0 8-3.582031 8-8v-144c0-4.417969-3.582031-8-8-8h-16v-16c.035156-30.914062 25.085938-55.964844 56-56h96c30.914062.035156 55.964844 25.085938 56 56v11.296875l-69.304688 289.734375c-5.941406 25.25-28.515624 43.0625-54.457031 42.96875h-28.238281c-30.914062-.035156-55.964844-25.085938-56-56zm240-160.945312-70.175781 293.410156c-9.371094 39.660156-44.828125 67.640625-85.585938 67.535156h-28.238281c-48.578125-.058594-87.941406-39.421875-88-88v-112h16v112c.042969 39.746094 32.253906 71.957031 72 72h28.238281c33.355469.113281 62.382813-22.792969 70.019531-55.265625l69.527344-290.636719c.144532-.609375.214844-1.234375.214844-1.859375v-12.238281c-.042969-39.746094-32.253906-71.957031-72-72h-96c-39.746094.042969-71.957031 32.253906-72 72v16h-16v-16c.058594-48.578125 39.421875-87.941406 88-88h96c48.578125.058594 87.941406 39.421875 88 88zm0 0"/><path d="m32 200c4.417969 0 8-3.582031 8-8v-40c0-4.417969-3.582031-8-8-8s-8 3.582031-8 8v40c0 4.417969 3.582031 8 8 8zm0 0"/><path d="m40 224v-8c0-4.417969-3.582031-8-8-8s-8 3.582031-8 8v8c0 4.417969 3.582031 8 8 8s8-3.582031 8-8zm0 0"/></g></svg>