<svg height="496pt" viewBox="0 -24 496 496" width="496pt" xmlns="http://www.w3.org/2000/svg"><path d="m288 248c0 39.765625-32.234375 72-72 72s-72-32.234375-72-72 32.234375-72 72-72 72 32.234375 72 72zm0 0" fill="#91cc04"/><path d="m216 248-24-24" fill="#d1d3d4"/><path d="m216 272 24-24" fill="#d1d3d4"/><path d="m440 120c0 48.601562-39.398438 88-88 88s-88-39.398438-88-88 39.398438-88 88-88 88 39.398438 88 88zm0 0" fill="#91cc04"/><path d="m352 120-24-24" fill="#d1d3d4"/><path d="m352 144 24-24" fill="#d1d3d4"/><path d="m184 360c0 17.671875-14.328125 32-32 32s-32-14.328125-32-32 14.328125-32 32-32 32 14.328125 32 32zm0 0" fill="#c2fb3b"/><path d="m152 360 64 24" fill="#d1d3d4"/><path d="m456 280c0 17.671875-14.328125 32-32 32s-32-14.328125-32-32 14.328125-32 32-32 32 14.328125 32 32zm0 0" fill="#c2fb3b"/><path d="m424 280-64 24" fill="#d1d3d4"/><path d="m144 88c0 26.507812-21.492188 48-48 48s-48-21.492188-48-48 21.492188-48 48-48 48 21.492188 48 48zm0 0" fill="#ffda44"/><path d="m146.910156 37.089844 5.65625-5.65625" fill="#d1d3d4"/><path d="m45.089844 138.910156-5.65625 5.65625" fill="#d1d3d4"/><path d="m146.910156 138.910156 5.65625 5.65625" fill="#d1d3d4"/><path d="m45.089844 37.089844-5.65625-5.65625" fill="#d1d3d4"/><path d="m392 104 8-8" fill="#d1d3d4"/><g fill="#231f20"><path d="m488 432h-8c-4.417969 0-8 3.582031-8 8s3.582031 8 8 8h8c4.417969 0 8-3.582031 8-8s-3.582031-8-8-8zm0 0"/><path d="m362.816406 311.496094 27.40625-10.28125c10.652344 16.742187 32 23.09375 50.066406 14.894531 18.070313-8.199219 27.347657-28.445313 21.765626-47.484375-5.585938-19.042969-24.332032-31.066406-43.96875-28.203125-19.632813 2.859375-34.167969 19.738281-34.085938 39.578125.042969 2.085938.253906 4.164062.632812 6.214844l-24.632812 9.242187v-79.832031h.902344c51.082031-4.667969 89.4375-48.722656 87.027344-99.960938-2.40625-51.238281-44.726563-91.5-96.019532-91.355468-51.296875.148437-93.386718 40.648437-95.503906 91.898437s36.484375 95.085938 87.59375 99.464844v216.328125h-120v-104.40625c42.414062-4.265625 74.035156-41.03125 71.898438-83.605469-2.132813-42.574219-37.273438-75.996093-79.898438-75.996093s-77.765625 33.421874-79.898438 75.996093c-2.136718 42.574219 29.484376 79.339844 71.898438 83.605469v44.863281l-16.632812-6.242187c.378906-2.050782.589843-4.128906.632812-6.214844.152344-20.101562-14.535156-37.242188-34.421875-40.175781-19.886719-2.933594-38.894531 9.238281-44.554687 28.527343-5.660157 19.289063 3.761718 39.800782 22.082031 48.078126 18.320312 8.273437 39.9375 1.785156 50.671875-15.214844l22.222656 8.328125v42.457031h-200c-4.417969 0-8 3.582031-8 8s3.582031 8 8 8h448c4.417969 0 8-3.582031 8-8s-3.582031-8-8-8h-96v-120c.960938-.003906 1.914062-.175781 2.816406-.503906zm37.183594-31.496094c-.144531-11.8125 8.222656-22.019531 19.835938-24.191406 11.613281-2.171875 23.105468 4.324218 27.234374 15.394531 4.132813 11.066406-.292968 23.503906-10.492187 29.46875-10.195313 5.96875-23.207031 3.742187-30.835937-5.28125l21.074218-7.894531c4.140625-1.546875 6.242188-6.15625 4.695313-10.296875s-6.15625-6.242188-10.296875-4.695313l-21.144532 7.9375c-.03125-.152344-.070312-.289062-.070312-.441406zm-248 104c-13.253906 0-24-10.746094-24-24s10.746094-24 24-24 24 10.746094 24 24v.441406l-21.144531-7.9375c-4.140625-1.546875-8.75.554688-10.296875 4.695313s.558594 8.75 4.699218 10.296875l21.070313 7.894531c-4.527344 5.449219-11.242187 8.605469-18.328125 8.609375zm0-136c-.027344-34.3125 27.011719-62.542969 61.292969-63.992188 34.28125-1.453124 63.609375 24.390626 66.480469 58.585938 2.875 34.191406-21.730469 64.566406-55.773438 68.855469v-36.136719l21.65625-21.65625c3.03125-3.140625 2.988281-8.128906-.097656-11.214844-3.085938-3.085937-8.074219-3.128906-11.214844-.097656l-10.34375 10.34375v-4.6875c-.011719-2.125-.855469-4.15625-2.351562-5.664062l-24-24c-3.140626-3.03125-8.128907-2.988282-11.214844.097656-3.085938 3.085937-3.128906 8.074218-.097656 11.214844l21.664062 21.664062v60.136719c-31.96875-4.058594-55.945312-31.226563-56-63.449219zm148.921875-66.398438c-24.925781-20.65625-34.945313-54.292968-25.390625-85.222656 9.558594-30.925781 36.8125-53.042968 69.042969-56.035156 2.539062-.230469 5.0625-.34375 7.570312-.34375 42.511719.191406 77.449219 33.601562 79.542969 76.066406 2.089844 42.460938-29.398438 79.140625-71.6875 83.507813v-52.261719l21.65625-21.65625c3.03125-3.140625 2.988281-8.128906-.097656-11.214844-3.085938-3.085937-8.074219-3.128906-11.214844-.097656l-10.34375 10.34375v-4.6875c-.011719-2.125-.855469-4.15625-2.351562-5.664062l-24-24c-3.140626-3.03125-8.128907-2.988282-11.214844.097656-3.085938 3.085937-3.128906 8.074218-.097656 11.214844l21.664062 21.664062v76.289062c-15.839844-1.542968-30.851562-7.816406-43.078125-18zm0 0"/><path d="m96 144c30.929688 0 56-25.070312 56-56s-25.070312-56-56-56-56 25.070312-56 56c.035156 30.914062 25.085938 55.964844 56 56zm0-96c22.089844 0 40 17.910156 40 40s-17.910156 40-40 40-40-17.910156-40-40c.027344-22.082031 17.917969-39.972656 40-40zm0 0"/><path d="m96 24c4.417969 0 8-3.582031 8-8v-8c0-4.417969-3.582031-8-8-8s-8 3.582031-8 8v8c0 4.417969 3.582031 8 8 8zm0 0"/><path d="m88 160v8c0 4.417969 3.582031 8 8 8s8-3.582031 8-8v-8c0-4.417969-3.582031-8-8-8s-8 3.582031-8 8zm0 0"/><path d="m168 96h8c4.417969 0 8-3.582031 8-8s-3.582031-8-8-8h-8c-4.417969 0-8 3.582031-8 8s3.582031 8 8 8zm0 0"/><path d="m16 96h8c4.417969 0 8-3.582031 8-8s-3.582031-8-8-8h-8c-4.417969 0-8 3.582031-8 8s3.582031 8 8 8zm0 0"/><path d="m146.910156 45.089844c2.125.003906 4.160156-.839844 5.65625-2.347656l5.65625-5.652344c2.082032-2.011719 2.914063-4.984375 2.183594-7.78125-.734375-2.796875-2.917969-4.980469-5.714844-5.714844-2.796875-.730469-5.769531.101562-7.78125 2.183594l-5.652344 5.65625c-2.289062 2.285156-2.972656 5.726562-1.734374 8.714844 1.238281 2.988281 4.152343 4.9375 7.386718 4.941406zm0 0"/><path d="m39.433594 133.257812-5.65625 5.652344c-2.082032 2.011719-2.914063 4.984375-2.183594 7.78125.734375 2.796875 2.917969 4.980469 5.714844 5.714844 2.796875.730469 5.769531-.101562 7.78125-2.183594l5.652344-5.65625c2.082031-2.007812 2.914062-4.980468 2.183593-7.777344-.730469-2.796874-2.917969-4.984374-5.714843-5.714843-2.796876-.730469-5.769532.101562-7.777344 2.183593zm0 0"/><path d="m152.566406 133.257812c-2.007812-2.082031-4.980468-2.914062-7.777344-2.183593-2.796874.730469-4.984374 2.917969-5.714843 5.714843-.730469 2.796876.101562 5.769532 2.183593 7.777344l5.652344 5.65625c2.011719 2.082032 4.984375 2.914063 7.78125 2.183594 2.796875-.734375 4.980469-2.917969 5.714844-5.714844.730469-2.796875-.101562-5.769531-2.183594-7.78125zm0 0"/><path d="m39.433594 42.742188c2.007812 2.082031 4.980468 2.914062 7.777344 2.183593 2.796874-.730469 4.984374-2.917969 5.714843-5.714843.730469-2.796876-.101562-5.769532-2.183593-7.777344l-5.652344-5.65625c-2.011719-2.082032-4.984375-2.914063-7.78125-2.183594-2.796875.734375-4.980469 2.917969-5.714844 5.714844-.730469 2.796875.101562 5.769531 2.183594 7.78125zm0 0"/><path d="m392 112c2.121094 0 4.15625-.84375 5.65625-2.34375l8-8c3.03125-3.140625 2.988281-8.128906-.097656-11.214844-3.085938-3.085937-8.074219-3.128906-11.214844-.097656l-8 8c-2.285156 2.289062-2.972656 5.730469-1.734375 8.71875s4.15625 4.9375 7.390625 4.9375zm0 0"/></g></svg>