<svg height="496pt" viewBox="-8 0 496 496.20063" width="496pt" xmlns="http://www.w3.org/2000/svg"><path d="m56.117188 79.984375h368v40h-368zm0 0" fill="#d1d3d4"/><path d="m392.117188 119.984375c0 83.949219-68.050782 152-152 152-83.945313 0-152-68.050781-152-152zm0 0" fill="#d80027"/><path d="m133.398438 228.066406-77.28125 195.917969h-32l86-225.199219zm0 0" fill="#414042"/><path d="m72.117188 455.984375c0 17.671875-14.324219 32-32 32-17.671876 0-32-14.328125-32-32s14.328124-32 32-32c17.675781 0 32 14.328125 32 32zm0 0" fill="#ab2300"/><path d="m456.117188 423.984375h-32l-77.277344-195.917969 23.277344-29.28125zm0 0" fill="#414042"/><path d="m472.117188 455.984375c0 17.671875-14.324219 32-32 32-17.671876 0-32-14.328125-32-32s14.328124-32 32-32c17.675781 0 32 14.328125 32 32zm0 0" fill="#ab2300"/><path d="m248.117188 7.984375c0 8-16 8-16 16s16 8 16 16-16 8-16 16" fill="#d1d3d4"/><path d="m160.117188 7.984375c0 8-16 8-16 16s16 8 16 16-16 8-16 16" fill="#d1d3d4"/><path d="m328.117188 7.984375c0 8-16 8-16 16s16 8 16 16-16 8-16 16" fill="#d1d3d4"/><g fill="#231f20"><path d="m464.0625 424.144531c.039062-1.023437-.121094-2.046875-.464844-3.015625l-84.710937-221.824218c12.484375-21.792969 19.621093-46.234376 20.824219-71.320313h24.40625c4.421874 0 8-3.582031 8-8v-40c0-4.417969-3.578126-8-8-8h-368c-4.417969 0-8 3.582031-8 8v40c0 4.417969 3.582031 8 8 8h24.410156c1.195312 25.085937 8.324218 49.527344 20.800781 71.320313l-84.6875 221.824218c-.34375.96875-.503906 1.992188-.464844 3.015625-13.765625 10.273438-19.4375 28.191407-14.085937 44.515625 5.351562 16.324219 20.527344 27.410156 37.707031 27.539063 17.175781.132812 32.519531-10.722657 38.117187-26.960938 5.601563-16.242187.207032-34.242187-13.402343-44.726562l25.457031-64.527344h300.300781l25.457031 64.527344c-13.609374 10.484375-19.003906 28.484375-13.40625 44.726562 5.601563 16.238281 20.945313 27.09375 38.121094 26.960938 17.179688-.128907 32.355469-11.214844 37.707032-27.539063 5.351562-16.324218-.320313-34.242187-14.085938-44.515625zm-399.945312-336.160156h352v24h-352zm319.785156 40c-4.1875 76.351563-67.316406 136.117187-143.785156 136.117187-76.464844 0-139.59375-59.765624-143.78125-136.117187zm-343.785156 352c-13.253907 0-24-10.746094-24-24s10.746093-24 24-24c13.257812 0 24 10.746094 24 24s-10.742188 24-24 24zm-4.382813-64 76.488281-200.273437c3.691406 4.9375 7.664063 9.652343 11.894532 14.128906l-73.445313 186.144531zm60.542969-72 40.320312-102.222656c59.605469 50.964843 147.4375 50.964843 207.042969 0l40.316406 102.222656zm333.289062 72-73.449218-186.144531c4.226562-4.476563 8.191406-9.195313 11.875-14.128906l76.511718 200.273437zm10.550782 64c-13.253907 0-24-10.746094-24-24s10.746093-24 24-24c13.257812 0 24 10.746094 24 24s-10.742188 24-24 24zm0 0"/><path d="m264.117188 159.984375h48c4.421874 0 8-3.582031 8-8s-3.578126-8-8-8h-48c-4.417969 0-8 3.582031-8 8s3.582031 8 8 8zm0 0"/><path d="m344.117188 159.984375h8c4.421874 0 8-3.582031 8-8s-3.578126-8-8-8h-8c-4.417969 0-8 3.582031-8 8s3.582031 8 8 8zm0 0"/><path d="m224.117188 55.984375c.015624 4.183594 3.246093 7.652344 7.421874 7.957031 4.171876.304688 7.875-2.660156 8.492188-6.796875 1.179688-.742187 2.402344-1.414062 3.664062-2.007812 4.648438-2.351563 12.421876-6.214844 12.421876-15.152344s-7.773438-12.800781-12.421876-15.160156c-.496093-.246094-1.082031-.535157-1.65625-.800781.574219-.300782 1.160157-.589844 1.65625-.796876 4.640626-2.441406 12.421876-6.296874 12.421876-15.242187-.007813-4.183594-3.238282-7.65625-7.414063-7.9648438-4.171875-.3046872-7.878906 2.6562498-8.496094 6.7968748-1.179687.738282-2.402343 1.40625-3.664062 2-4.640625 2.367188-12.425781 6.207032-12.425781 15.167969s7.777343 12.800781 12.425781 15.160156l1.671875.839844-1.671875.847656c-4.648438 2.351563-12.425781 6.207031-12.425781 15.152344zm0 0"/><path d="m136.117188 55.984375c.015624 4.183594 3.246093 7.652344 7.421874 7.957031 4.171876.304688 7.875-2.660156 8.492188-6.796875 1.179688-.742187 2.402344-1.414062 3.664062-2.007812 4.648438-2.351563 12.421876-6.214844 12.421876-15.152344s-7.773438-12.800781-12.421876-15.160156c-.496093-.246094-1.082031-.535157-1.65625-.800781.574219-.300782 1.160157-.589844 1.65625-.796876 4.640626-2.441406 12.421876-6.296874 12.421876-15.242187-.007813-4.183594-3.238282-7.65625-7.414063-7.9648438-4.171875-.3046872-7.878906 2.6562498-8.496094 6.7968748-1.179687.738282-2.402343 1.40625-3.664062 2-4.640625 2.367188-12.425781 6.207032-12.425781 15.167969s7.777343 12.800781 12.425781 15.160156l1.671875.839844-1.671875.847656c-4.648438 2.351563-12.425781 6.207031-12.425781 15.152344zm0 0"/><path d="m304.117188 55.984375c.015624 4.183594 3.246093 7.652344 7.421874 7.957031 4.171876.304688 7.875-2.660156 8.492188-6.796875 1.179688-.742187 2.402344-1.414062 3.664062-2.007812 4.648438-2.351563 12.421876-6.214844 12.421876-15.152344s-7.773438-12.800781-12.421876-15.160156c-.496093-.246094-1.082031-.535157-1.65625-.800781.574219-.300782 1.160157-.589844 1.65625-.796876 4.640626-2.441406 12.421876-6.296874 12.421876-15.242187-.007813-4.183594-3.238282-7.65625-7.414063-7.9648438-4.171875-.3046872-7.878906 2.6562498-8.496094 6.7968748-1.179687.738282-2.402343 1.40625-3.664062 2-4.640625 2.367188-12.425781 6.207032-12.425781 15.167969s7.777343 12.800781 12.425781 15.160156l1.671875.839844-1.671875.847656c-4.648438 2.351563-12.425781 6.207031-12.425781 15.152344zm0 0"/></g></svg>