<svg height="496pt" viewBox="0 -15 496 495" width="496pt" xmlns="http://www.w3.org/2000/svg"><path d="m80 152.5h336v304h-336zm0 0" fill="#754c29"/><path d="m456 152.5h-416l16-80h384zm0 0" fill="#4e901e"/><path d="m112 8.5h64v64h-64zm0 0" fill="#91cc04"/><path d="m128 288.5h96v96h-96zm0 0" fill="#1a6fb0"/><path d="m80 152.5h336v48h-336zm0 0" fill="#603913"/><path d="m80 248.5h336v48h-336zm0 0" fill="#603913"/><path d="m80 416.5h336v48h-336zm0 0" fill="#603913"/><path d="m264 288.5h104v168h-104zm0 0" fill="#00665a"/><g fill="#231f20"><path d="m456 448.5h-32v-288h32c2.402344 0 4.679688-1.078125 6.199219-2.941406 1.519531-1.859375 2.121093-4.304688 1.640625-6.660156l-16-80c-.761719-3.722657-4.039063-6.398438-7.839844-6.398438h-256v-56c0-4.417969-3.582031-8-8-8h-64c-4.417969 0-8 3.582031-8 8v56h-48c-3.800781 0-7.078125 2.675781-7.839844 6.398438l-16 80c-.480468 2.355468.121094 4.800781 1.640625 6.660156 1.519531 1.863281 3.796875 2.941406 6.199219 2.941406h32v288h-64c-4.417969 0-8 3.582031-8 8s3.582031 8 8 8h448c4.417969 0 8-3.582031 8-8s-3.582031-8-8-8zm-200-160v120h-168v-56h32v32c0 4.417969 3.582031 8 8 8h96c4.417969 0 8-3.582031 8-8v-96c0-4.417969-3.582031-8-8-8h-96c-4.417969 0-8 3.582031-8 8h-32v-32h320v32h-32c0-4.417969-3.582031-8-8-8h-104c-4.417969 0-8 3.582031-8 8zm-136 48h-32v-32h32zm16 40v-80h80v80zm240-72h32v32h-32zm0 48h32v56h-32zm-256-336h48v48h-48zm-57.441406 64h370.882812l12.796875 64h-396.476562zm345.441406 80v80h-320v-32h256c4.417969 0 8-3.582031 8-8s-3.582031-8-8-8h-256v-32zm-320 264h168v24h-168zm184 24v-152h88v152zm104 0v-24h32v24zm0 0"/><path d="m488 448.5h-8c-4.417969 0-8 3.582031-8 8s3.582031 8 8 8h8c4.417969 0 8-3.582031 8-8s-3.582031-8-8-8zm0 0"/><path d="m168 120.5c4.417969 0 8-3.582031 8-8s-3.582031-8-8-8h-88c-4.417969 0-8 3.582031-8 8s3.582031 8 8 8zm0 0"/><path d="m192 120.5h8c4.417969 0 8-3.582031 8-8s-3.582031-8-8-8h-8c-4.417969 0-8 3.582031-8 8s3.582031 8 8 8zm0 0"/><path d="m368 208.5h16c4.417969 0 8-3.582031 8-8s-3.582031-8-8-8h-16c-4.417969 0-8 3.582031-8 8s3.582031 8 8 8zm0 0"/></g></svg>