<svg height="496pt" viewBox="-5 0 496 496" width="496pt" xmlns="http://www.w3.org/2000/svg"><path d="m242.832031 336c-110.625 0-203.769531-61.296875-231.558593-81.601562-2.0625-1.492188-3.285157-3.882813-3.285157-6.429688s1.222657-4.9375 3.285157-6.433594c27.789062-20.261718 120.933593-81.535156 231.558593-81.535156s203.847657 61.351562 231.589844 81.601562c2.050781 1.488282 3.261719 3.867188 3.261719 6.398438s-1.210938 4.910156-3.261719 6.398438c-27.757813 20.242187-120.933594 81.601562-231.589844 81.601562zm0 0" fill="#cca400"/><path d="m234.816406 247.984375c0 26.507813-21.492187 48-48 48-26.511718 0-48-21.492187-48-48 0-26.511719 21.488282-48 48-48 26.507813 0 48 21.488281 48 48zm0 0" fill="#acabb1"/><path d="m219.621094 14.261719 21.632812 51.652343c3.414063 8.152344-.425781 17.527344-8.574218 20.9375l-29.519532 12.363282c-8.148437 3.414062-17.523437-.425782-20.9375-8.578125l-21.632812-51.652344zm0 0" fill="#3d9ae2"/><path d="m346.015625 481.714844-21.636719-51.652344c-3.410156-8.152344.429688-17.527344 8.578125-20.9375l29.515625-12.363281c8.152344-3.414063 17.527344.425781 20.941406 8.578125l21.632813 51.652344zm0 0" fill="#3d9ae2"/><path d="m221.007812 100.40625 123.617188 295.160156" fill="#d1d3d4"/><g fill="#231f20"><path d="m479.121094 235.128906c-26.042969-19.007812-117.890625-79.753906-227.707032-82.847656l-22.984374-54.960938 7.371093-3.089843c12.226563-5.113281 17.992188-19.171875 12.878907-31.398438l-21.679688-51.632812c-1.707031-4.074219-6.398438-5.996094-10.472656-4.289063l-59.03125 24.691406c-4.066406 1.714844-5.976563 6.402344-4.265625 10.46875l21.601562 51.648438c5.117188 12.230469 19.179688 17.992188 31.40625 12.875l7.378907-3.097656 20.429687 48.800781c-109.617187 3.136719-201.464844 63.808594-227.496094 82.800781-4.117187 3.003906-6.550781 7.792969-6.550781 12.890625 0 5.097657 2.433594 9.886719 6.550781 12.890625 26.722657 19.496094 122.679688 83.121094 236.28125 83.121094 23-.113281 45.925781-2.617188 68.40625-7.472656l25.992188 62.128906-7.382813 3.085938c-12.210937 5.144531-17.960937 19.191406-12.863281 31.417968l21.597656 51.648438c1.707031 4.074218 6.398438 5.996094 10.472657 4.289062l59.03125-24.722656c4.078124-1.707031 6-6.394531 4.289062-10.472656l-21.597656-51.644532c-2.460938-5.878906-7.152344-10.535156-13.046875-12.949218-5.894531-2.414063-12.503907-2.386719-18.378907.074218l-7.367187 3.089844-24.960937-59.59375c54.617187-14.625 106.136718-39.019531 152.0625-72 4.113281-2.992187 6.546874-7.773437 6.546874-12.863281 0-5.085937-2.433593-9.867187-6.546874-12.863281zm-279.058594-143.296875c-4.074219 1.703125-8.757812-.214843-10.464844-4.289062l-18.542968-44.269531 44.273437-18.546876 18.550781 44.273438c1.707032 4.078125-.214844 8.769531-4.296875 10.472656zm165.496094 312.3125c4.078125-1.710937 8.765625.210938 10.472656 4.289063l18.550781 44.269531-44.269531 18.542969-18.542969-44.269532c-1.710937-4.074218.203125-8.761718 4.277344-10.472656zm-122.726563-76.144531c-108.726562 0-201.121093-61.273438-226.839843-80 25.550781-18.648438 116.917968-79.152344 224.679687-79.953125l64.28125 153.480469c-20.441406 4.207031-41.25 6.375-62.121094 6.472656zm78.015625-9.960938-62.632812-149.519531c101.976562 5.335938 186.96875 61.601563 211.464844 79.410157-44.886719 32.316406-95.34375 56.082031-148.847657 70.101562zm0 0"/><path d="m186.832031 192c-30.929687 0-56 25.070312-56 56s25.070313 56 56 56c30.925781 0 56-25.070312 56-56-.035156-30.914062-25.085937-55.964844-56-56zm0 96c-22.09375 0-40-17.910156-40-40s17.90625-40 40-40c22.089844 0 40 17.910156 40 40-.027343 22.082031-17.921875 39.972656-40 40zm0 0"/><path d="m82.832031 240h-32c-4.417969 0-8 3.582031-8 8s3.582031 8 8 8h32c4.417969 0 8-3.582031 8-8s-3.582031-8-8-8zm0 0"/><path d="m114.832031 240h-8c-4.417969 0-8 3.582031-8 8s3.582031 8 8 8h8c4.417969 0 8-3.582031 8-8s-3.582031-8-8-8zm0 0"/><path d="m290.832031 16h104c4.417969 0 8-3.582031 8-8s-3.582031-8-8-8h-104c-4.417969 0-8 3.582031-8 8s3.582031 8 8 8zm0 0"/><path d="m418.832031 16h16c4.417969 0 8-3.582031 8-8s-3.582031-8-8-8h-16c-4.417969 0-8 3.582031-8 8s3.582031 8 8 8zm0 0"/><path d="m274.832031 48h96c4.417969 0 8-3.582031 8-8s-3.582031-8-8-8h-96c-4.417969 0-8 3.582031-8 8s3.582031 8 8 8zm0 0"/><path d="m330.832031 64c-4.417969 0-8 3.582031-8 8s3.582031 8 8 8h96c4.417969 0 8-3.582031 8-8s-3.582031-8-8-8zm0 0"/><path d="m234.832031 424c0-4.417969-3.582031-8-8-8h-96c-4.417969 0-8 3.582031-8 8s3.582031 8 8 8h96c4.417969 0 8-3.582031 8-8zm0 0"/><path d="m274.832031 448h-104c-4.417969 0-8 3.582031-8 8s3.582031 8 8 8h104c4.417969 0 8-3.582031 8-8s-3.582031-8-8-8zm0 0"/><path d="m162.832031 480h-16c-4.417969 0-8 3.582031-8 8s3.582031 8 8 8h16c4.417969 0 8-3.582031 8-8s-3.582031-8-8-8zm0 0"/><path d="m250.832031 480h-64c-4.417969 0-8 3.582031-8 8s3.582031 8 8 8h64c4.417969 0 8-3.582031 8-8s-3.582031-8-8-8zm0 0"/></g></svg>